<svg width="32" height="32" viewBox="0 0 32 32" fill="none" xmlns="http://www.w3.org/2000/svg">
  <style>
    path {
      fill: #21222A;
    }
    @media (prefers-color-scheme: dark) {
      path { fill: #F8F8F8; }
    }
  </style>
<path fill-rule="evenodd" clip-rule="evenodd" d="M20.7393 4.33779C22.9237 4.58111 24.889 5.45888 26.5257 7.03825L26.5276 7.04013C29.0798 9.53668 28.8297 12.852 27.4289 15.1287L27.4275 15.1309C26.3251 16.8969 24.2474 18.4464 21.7758 18.5612C21.7039 18.5646 21.6318 18.5667 21.5593 18.5676C21.7427 19.5969 21.9008 20.914 22.0903 22.8777C22.3043 25.0504 23.2222 26.3544 24.4745 26.6587C25.863 26.92 27.6196 25.9284 28.8168 23.7567C28.9437 23.5266 29.1244 23.3517 29.3502 23.2716C29.5784 23.1907 29.8152 23.2211 30.0061 23.3359C30.3983 23.5717 30.5155 24.0856 30.2719 24.5423C29.9751 25.0991 29.3281 26.1824 28.3172 27.055C27.2987 27.9341 25.8873 28.6165 24.0989 28.2973L24.0931 28.2963C21.9758 27.8866 20.6821 25.7213 20.4097 23.0471C20.1654 20.689 19.9977 19.3024 19.8046 18.3104C19.3761 18.2068 18.956 18.0516 18.5621 17.9061L18.5353 17.8962L18.5249 17.8917C17.5393 17.4626 16.8446 16.7852 16.7822 15.8972C16.7241 15.3311 17.0303 14.7715 17.5304 14.5175C17.9573 14.3007 18.8792 14.2094 19.9576 15.1057L19.9603 15.108C20.4909 15.5571 20.8699 16.0218 21.1517 16.8353C21.32 16.8457 21.4863 16.8475 21.6504 16.8412C23.5301 16.769 25.1169 15.6363 25.9992 14.2545L26.0033 14.2482C27.0299 12.7048 27.347 10.1846 25.391 8.23887C24.0725 6.93226 22.5882 6.22402 20.8619 6.02039C20.3848 5.96411 19.8893 5.94638 19.3736 5.9652C16.7306 9.39174 14.9708 13.4045 14.0179 16.0004L14.0171 16.0026C12.7418 19.4161 11.6089 21.9489 10.5899 23.7995C9.57348 25.6453 8.65721 26.8369 7.80504 27.5432C6.94073 28.2596 6.12404 28.4898 5.34637 28.3698C4.59485 28.2538 3.9479 27.8193 3.39235 27.3588C2.39024 26.5411 1.83553 25.2492 1.66103 23.7424C1.48609 22.2319 1.68714 20.4674 2.23502 18.64C3.33068 14.9855 5.83364 11.0125 9.64637 8.21658L9.648 8.21539C12.7175 5.9882 15.6498 4.65242 18.4396 4.33912C19.6367 2.94265 20.6159 2.06627 20.8468 1.85966L20.8777 1.8319L20.8822 1.82784C21.2666 1.44424 21.7901 1.59869 22.0657 1.87863C22.4447 2.26361 22.2978 2.7882 22.0215 3.06883L22.0133 3.0772L22.0043 3.0853L22.0029 3.08657L21.9967 3.0922L21.9711 3.11573C21.9482 3.13679 21.9139 3.16852 21.8693 3.2104C21.7801 3.29416 21.6496 3.41845 21.486 3.57908C21.2827 3.77872 21.0285 4.03431 20.7393 4.33779ZM12.3857 15.5363L12.466 15.3322C13.3616 13.0557 14.7102 9.62777 16.9875 6.33631C15.0109 6.86733 12.9286 7.86939 10.7401 9.48965L10.7383 9.49095C7.24876 12.0449 5.04049 15.4566 3.99805 18.5621C3.47674 20.115 3.25075 21.5802 3.29501 22.8136C3.33954 24.0545 3.65525 25.0195 4.1713 25.6214L4.17696 25.628C4.6197 26.1677 5.12351 26.6163 5.73685 26.5831C6.35389 26.5497 7.2969 26.0145 8.56928 23.9647C9.56615 22.3354 10.9262 19.31 12.3848 15.5386L12.3857 15.5363Z" fill="#21222A"/>
</svg>
